<?xml version="1.0" encoding="UTF-8"?> <svg xmlns="http://www.w3.org/2000/svg" xmlns:xlink="http://www.w3.org/1999/xlink" id="Layer_1" data-name="Layer 1" viewBox="0 0 115.6668 115.562"><a><path id="fullLogo" d="M69.5527,67.6152l-.0075-.0525v-.015l-4.3429-12.5272c-1.6249-4.6949,2.3212-8.057,1.9617-9.0902l-1.6548-4.7922h-16.1738l.9884,2.8528c.0899,.1573,.2097,.2996,.3669,.4269,.0075,.0075,.015,.0075,.0225,.015,1.2804,.7862,5.3838,1.4676,6.7916,5.556l10.528,30.3934h1.0257l2.6208-6.6718-2.119-6.1101-.0075,.015Z" style="fill: #9a3521;"></path></a><a><path id="fullLogo-2" data-name="fullLogo" d="M44.9401,45.9302l-1.6548-4.7922h-13.321v1.9992c0,.3519,.0599,.6364,.1797,.8686,.1274,.2247,.3294,.4269,.6066,.6066,.0899,.0523,.2545,.1273,.5016,.2321,1.3029,.599,2.2539,1.7746,2.8679,3.5268l11.4789,32.0107h3.2422l1.5501-3.9611-7.413-21.4005c-1.6249-4.6949,2.3212-8.057,1.9618-9.0902Z" style="fill: #9a3521;"></path></a><a><path id="fullLogo-3" data-name="fullLogo" d="M85.5619,42.9108v-1.7727h-14.0023l1.0108,2.9203c.7721,.7721,4.4169,1.0992,6.4254,4.2511,.1118,.2262,.2347,.4789,.3742,.772,.3339,.7041,.5938,1.2776,.7722,1.7041l.138,.3294h.987l4.2947-7.275v-.9291h0Z" style="fill: #9a3521;"></path></a><path id="fullLogo-4" data-name="fullLogo" d="M41.571,10.5977l-.4102,.1255-2.3652-2.6987c-.9453-1.0713-1.6582-1.853-2.1396-2.3462-.4824-.4937-.8193-.7817-1.0068-.8647-.1895-.083-.3838-.1206-.5801-.1128-.125,.0059-.2002-.0327-.2256-.1147-.0186-.0596-.0088-.1064,.0273-.1401,.0371-.0337,.1484-.0791,.335-.1367l1.4199-.4058c.1719-.0527,.3994-.1309,.6826-.2344,.4072-.1499,.7217-.2593,.9463-.3281,.1348-.041,.2188-.0078,.2529,.1006,.0303,.1006-.0322,.1816-.1904,.2422-.1553,.0645-.2812,.165-.3779,.3032s-.1221,.2798-.0781,.4253c.0361,.1162,.1162,.2529,.2393,.4106,.125,.1577,.6172,.7256,1.4805,1.7036l1.5879,1.7734,.2021-3.6313c-.1279-.1396-.3398-.3887-.6357-.748-.2949-.3584-.5039-.5615-.6289-.6089-.123-.0474-.3047-.0537-.542-.0176-.1289,.0195-.207-.0161-.2334-.1055-.0186-.0596-.0078-.1064,.0332-.1396,.041-.0327,.2031-.0928,.4863-.1802l1.3477-.3838,1.084-.3633c.3799-.1177,.5967-.1777,.6494-.1812,.0518-.0039,.0898,.0332,.1143,.1118,.0303,.1011-.0225,.1724-.1621,.2148-.2422,.0747-.4033,.1895-.4824,.3447-.0781,.1553-.0938,.313-.043,.4731,.1387,.4556,1.1035,1.7305,2.8945,3.8242,.0527-.5967,.1045-1.4224,.1562-2.4756,.0508-1.0537,.0742-1.6621,.0703-1.8237-.0059-.1621-.0283-.3101-.0703-.4448-.0645-.209-.1758-.3418-.3369-.3984-.1602-.0571-.3057-.0684-.4326-.0327-.1904,.0459-.2998,.0225-.3291-.0708-.0303-.1006,.0381-.1772,.2061-.2285l.9551-.2632c.3691-.1138,.6855-.2251,.9512-.3335,.1504-.0596,.251-.0972,.3027-.1133,.1455-.0449,.2344-.0151,.2676,.0898,.0273,.0928-.0312,.1709-.1797,.2324-.1494,.0625-.2705,.147-.3633,.2539-.0957,.1069-.1865,.3066-.2734,.5986-.0879,.2925-.1621,.8867-.2207,1.7837l-.1709,2.8105-.1611,2.8579-.3965,.1211c-.1406-.1484-.707-.8691-1.7012-2.1611-.5166-.666-1.0801-1.3613-1.6904-2.0869l-.1475,2.8169-.1172,2.5562Z" style="fill: #9a3521;"></path><path id="fullLogo-5" data-name="fullLogo" d="M57.5886,0c.1562,.6021,.3105,1.2041,.4629,1.8066,.0059,.1133-.0469,.1729-.1602,.1782-.0625,.0034-.1348-.0474-.2178-.1523-.4326-.562-.8203-.9282-1.1631-1.0977-.3438-.1689-.8301-.2378-1.457-.2051-.3516,.0181-.6904,.0649-1.0156,.1401-.0352,.6929-.0293,1.4502,.0117,2.2715,.0068,.1406,.0234,.3755,.0488,.7061l.4443-.0171c.2773-.0142,.5146-.0649,.7119-.1509,.1973-.0864,.3594-.2573,.4863-.5122,.1279-.2549,.1992-.418,.2148-.4893,.0293-.1265,.0859-.1924,.1719-.1968,.1094-.0059,.166,.0386,.1719,.1323,.002,.0269-.001,.0586-.0068,.0942-.0352,.2441-.0205,.9688,.042,2.1743,.0088,.1675,.0312,.3193,.0684,.4541,.0117,.0386,.0166,.0718,.0176,.0986,.0068,.1094-.0527,.167-.1777,.1738-.0869,.0044-.1582-.0957-.2148-.2998-.0977-.3589-.2891-.626-.5771-.8008s-.7305-.2505-1.3311-.2275c.0156,.6562,.0273,1.0879,.0381,1.2949,.0469,.8892,.0859,1.417,.123,1.5835,.0361,.1665,.1416,.2969,.3193,.3911,.1777,.0947,.4707,.1313,.8809,.1104,1.4863-.0771,2.4395-.5991,2.8594-1.5679,.0586-.1357,.127-.2056,.2051-.21,.1133-.0059,.1719,.0381,.1758,.1318,.0039,.0625-.0039,.1431-.0225,.2417l-.293,1.6992-2.1201,.103c-.5957,.0273-1.1543,.042-1.6719,.0459-.5195,.0029-.9238,.0122-1.2158,.0273-.3271,.0166-.8203,.0615-1.4775,.1348-.0811,.0122-.1416,.019-.1807,.021-.1826,.0098-.2783-.0464-.2842-.167-.0059-.1094,.0645-.1675,.2139-.1753,.3779-.0195,.6279-.1353,.7471-.3467,.1211-.2109,.165-.6323,.1318-1.2637l-.1201-3.0132c-.0547-1.0293-.0996-1.6611-.1367-1.8955s-.1133-.3906-.2266-.4692c-.1133-.0781-.3213-.1309-.623-.1582-.127-.0088-.1914-.0605-.1973-.1538-.0059-.1172,.0645-.1797,.209-.187l1.4121-.0303,4.7227-.2275Z" style="fill: #9a3521;"></path><path id="fullLogo-6" data-name="fullLogo" d="M67.5691,1.0996c.0566-.042,.1182-.1113,.1836-.2065,.0742-.1138,.1504-.165,.2227-.1548,.1055,.0151,.1562,.1094,.1543,.2827l-.0273,1.6187-.0049,.1948c-.0146,.104-.0752,.1489-.1787,.1338-.0781-.0112-.1309-.0376-.1611-.0796-.0283-.042-.0771-.1709-.1445-.3867-.1162-.3696-.3447-.7192-.6885-1.0508-.3418-.3306-.707-.5244-1.0938-.5806-.375-.0542-.7012,.0078-.9824,.1865s-.4463,.4312-.4922,.7568c-.0381,.2593,.0449,.5112,.2451,.7544,.2021,.2422,.6182,.5049,1.2529,.7871,.9941,.4453,1.6426,.9102,1.9473,1.3965,.2998,.4858,.4121,.9937,.3359,1.5229-.0791,.5415-.2793,.9761-.5986,1.3042-.3203,.3281-.6807,.5708-1.083,.7275-.4023,.1562-.8926,.1929-1.4727,.1084-.3291-.0479-.6621-.1445-1-.2905-.3379-.1455-.6807-.3408-1.0283-.5845-.0898,.0776-.1729,.1841-.2471,.3193-.0859,.1494-.1738,.2173-.2666,.2041-.0967-.0142-.1396-.127-.1299-.3389l.1387-2.1289c.0059-.0938,.0098-.1523,.0137-.1758,.0166-.1123,.083-.1597,.1992-.1431,.084,.0127,.1514,.1206,.2012,.3257,.1514,.6143,.4014,1.144,.751,1.5894,.3467,.4448,.7881,.707,1.3252,.7847,.4561,.0664,.8447-.0151,1.1641-.2451s.5039-.5171,.5547-.8613c.0488-.3438-.0381-.6523-.2627-.9258-.2256-.2739-.6572-.5674-1.2998-.8818-.6211-.3071-1.0781-.5811-1.3691-.8208-.291-.2393-.5068-.5425-.6484-.9087-.1436-.3657-.1895-.7231-.1387-1.0708,.0879-.6069,.3984-1.0889,.9297-1.4458,.5312-.3564,1.2012-.4766,2.0098-.3589,.4355,.063,.999,.2773,1.6895,.6421Z" style="fill: #9a3521;"></path><path id="fullLogo-7" data-name="fullLogo" d="M77.7468,7.332l.6523-1.6553c.1699-.4692,.2422-.8203,.2188-1.0527-.0254-.2324-.1875-.4092-.4883-.5303-.2461-.1011-.3506-.2051-.3115-.3115,.041-.1138,.1357-.144,.2812-.0913,.1689,.0605,.4229,.1616,.7627,.3022,.4355,.1807,.6807,.2803,.7314,.2983,.625,.2251,1.1768,.4072,1.6572,.5469,.0898,.0249,.1533,.0435,.1904,.0566,.1396,.0503,.1904,.1265,.1533,.2295-.041,.1143-.1416,.144-.3008,.0913-.2588-.0894-.4531-.1201-.5859-.0933-.1328,.0273-.2441,.1021-.3359,.2251-.0918,.1226-.3008,.5957-.627,1.4199-.3262,.8232-.5459,1.3916-.6582,1.7041-.4668,1.2949-.7441,2.0903-.832,2.3867-.0879,.2969-.0938,.5229-.0195,.6787s.252,.2837,.5303,.3843c.1729,.0625,.2393,.1489,.1992,.2583-.0342,.0957-.1172,.1201-.249,.0723-.0449-.0156-.1377-.0557-.2812-.1196l-1.5039-.604c-.0918-.0332-.2705-.0898-.5371-.1689-.5098-.1465-.8389-.2466-.9863-.2993-.1328-.0479-.1797-.1245-.1406-.2314,.0352-.0952,.1055-.1235,.2168-.084,.2627,.0947,.4707,.1182,.625,.0698,.1543-.0488,.3184-.228,.4922-.5391s.4395-.9609,.7949-1.9492c.0371-.103,.0898-.2588,.1562-.4673-.6367-.25-1.2031-.4644-1.6992-.6431-.5703-.2056-1.0264-.3496-1.3701-.4316-.3066,.7236-.5674,1.3857-.7842,1.9844-.1523,.4268-.2129,.7393-.1797,.9385,.0352,.1992,.1973,.3594,.4902,.4814,.1406,.0591,.1934,.1382,.1582,.2373-.0371,.103-.1309,.127-.2822,.0728-.0557-.02-.1338-.0547-.2373-.104-.4238-.1982-.875-.3838-1.3535-.5562-.2246-.0811-.5283-.1792-.9102-.2939-.2715-.0791-.4453-.1323-.5234-.1602-.1895-.0688-.2656-.1587-.2275-.269,.0332-.0879,.1279-.1143,.2852-.0781,.293,.0723,.5068,.0811,.6416,.0259,.1338-.0552,.2715-.2017,.4131-.439s.4336-.9551,.876-2.1523c.4404-1.1973,.6816-1.8511,.7207-1.9609,.1963-.5439,.3184-.9448,.3682-1.2026s.0439-.4458-.0176-.5635-.1836-.2217-.3662-.313c-.1396-.0747-.2236-.1289-.2539-.1626-.0283-.0332-.0322-.083-.0078-.1489,.0391-.1104,.1221-.1431,.2471-.0977,.1582,.0566,.4189,.1675,.7842,.332,.2061,.0908,.4404,.1836,.7051,.2788l1.5762,.5059c.1816,.0654,.25,.1548,.209,.2686-.0391,.1099-.1328,.1387-.2793,.0859-.2432-.0874-.4199-.1182-.5342-.0923-.1123,.0259-.2227,.1172-.3291,.2744-.1055,.1572-.25,.4844-.4277,.9814l-.5547,1.5723c.4492,.2158,.9434,.4209,1.4854,.6157,.5352,.1934,1.0596,.3555,1.5732,.4868Z" style="fill: #9a3521;"></path><path id="fullLogo-8" data-name="fullLogo" d="M85.9187,7.2695c.1191,.0698,.3555,.2231,.709,.4595,.2695,.1807,.4873,.3198,.6514,.418l1.5693,.8804c.1318,.0776,.1699,.1621,.1152,.2524-.0479,.0806-.1338,.0928-.2598,.0361-.2812-.1309-.4883-.187-.6191-.1675-.1318,.019-.3008,.1445-.5049,.3774-.2041,.2324-.5811,.8101-1.1299,1.7319-.6309,1.0601-1.1016,1.8892-1.4131,2.4873-.3115,.5986-.4561,.9961-.4346,1.1934,.0215,.1968,.1523,.3657,.3906,.5078,.1641,.0977,.2188,.1904,.168,.2778-.0693,.1177-.1934,.123-.3711,.0171-.0508-.0298-.123-.0757-.2197-.1367-.6045-.4194-1.0225-.6982-1.2529-.8359-.5078-.3018-.8916-.5093-1.1514-.623-.1348-.0625-.2295-.1099-.2832-.1416-.124-.0742-.1572-.1602-.0996-.2573,.0459-.0771,.124-.0913,.2373-.043,.3066,.1333,.5469,.168,.7178,.104,.1729-.0635,.4082-.3223,.7061-.7769,.2969-.4546,.7393-1.1733,1.3242-2.1567,.6172-1.0376,1.0127-1.7422,1.1855-2.1152,.1719-.3726,.2393-.6245,.2012-.7559-.0381-.1318-.1719-.2793-.4014-.4434-.1221-.0864-.1533-.1758-.0986-.27,.0518-.0874,.1406-.0942,.2637-.02Z" style="fill: #9a3521;"></path><path id="fullLogo-9" data-name="fullLogo" d="M92.1843,16.5864l-1.4609,1.6802c-.3066,.3545-.4551,.6279-.4453,.8198s.1143,.3784,.3125,.561c.1338,.1201,.209,.2051,.2285,.2554,.0195,.0498,.0059,.1016-.041,.1548-.0645,.0767-.1855,.041-.3555-.1074-.0771-.0664-.248-.2295-.5137-.4902-.3604-.3477-.6172-.5869-.7666-.7168-.166-.1431-.4033-.3296-.71-.5596-.2559-.189-.4365-.3311-.5459-.4253-.0947-.0815-.1064-.1636-.0342-.2466,.0566-.0649,.1758-.0391,.3574,.0776,.1836,.1167,.334,.1743,.457,.1729,.1191-.0015,.2598-.0649,.4238-.1904,.1621-.1255,.5293-.5166,1.1025-1.1743,.5752-.6572,1.0771-1.2368,1.5117-1.7388l1.2021-1.3989c.1631-.1885,.248-.3799,.2559-.5723,.0049-.1934-.1055-.3892-.3359-.5884-.1045-.0894-.1201-.1758-.0488-.2583,.084-.0977,.2178-.0674,.4014,.0913l.1113,.104c.1572,.1519,.3467,.3223,.5645,.5117l1.8311,1.5366c.916,.7915,1.4375,1.4819,1.5615,2.0688,.125,.5874-.0244,1.1265-.4482,1.6162-.4238,.4902-.958,.7148-1.6025,.6758-.6455-.04-1.4072-.4399-2.2881-1.2012-.2051-.1763-.4453-.3955-.7246-.6577Zm.2715-.3149c.1553,.1606,.2793,.2803,.3711,.3594,.4707,.4062,.9443,.5688,1.4219,.4873,.4785-.0811,.8867-.3184,1.2266-.71,.3213-.3721,.4551-.7437,.4023-1.1147-.0537-.3706-.2383-.6919-.5508-.9624-.1631-.1411-.4121-.3125-.7471-.5151l-2.124,2.4556Z" style="fill: #9a3521;"></path><path id="fullLogo-10" data-name="fullLogo" d="M108.6736,30.4219c-.458,.4219-.915,.8418-1.376,1.2598-.0957,.0586-.1729,.0396-.2324-.0566-.0312-.0532-.0215-.1416,.0332-.2646,.291-.646,.4316-1.1602,.4189-1.543-.0127-.3823-.1807-.8438-.5059-1.3823-.1826-.3013-.3818-.5776-.6006-.8281-.6289,.2959-1.2939,.6558-1.999,1.0806-.1201,.0723-.3203,.1978-.5996,.375l.2246,.3848c.1436,.2373,.2998,.4229,.4678,.5557,.1689,.1328,.3965,.1958,.6816,.188,.2852-.0073,.4629-.021,.5322-.0405,.126-.0342,.2109-.0146,.2559,.0586,.0557,.0938,.0439,.165-.0371,.2134-.0225,.0142-.0527,.0269-.085,.0386-.2324,.085-.8652,.4385-1.8994,1.0615-.1436,.0864-.2666,.1782-.3672,.2749-.0293,.0273-.0557,.0483-.0791,.0625-.0938,.0562-.1719,.0312-.2373-.0762-.0449-.0737,.0107-.1836,.1631-.3306,.2705-.2549,.415-.5503,.4355-.8862,.0176-.3364-.125-.7632-.4268-1.2803-.5723,.3218-.9463,.5366-1.124,.6431-.7637,.46-1.21,.7446-1.3398,.8545-.1289,.1104-.1943,.2656-.1953,.4663,.001,.2007,.1064,.4766,.3184,.8286,.7686,1.2749,1.6797,1.8696,2.7305,1.7832,.1484-.0117,.2422,.0156,.2822,.082,.0576,.0967,.0469,.1689-.0342,.2178-.0527,.0322-.127,.0635-.2227,.0938l-1.6377,.542-1.0889-1.8203c-.3047-.5137-.582-.9985-.8301-1.4541-.2461-.4556-.4453-.8086-.5967-1.0596-.1689-.2808-.4404-.6943-.8145-1.2393-.0488-.0659-.085-.1162-.1035-.1494-.0957-.1572-.0908-.2676,.0127-.3296,.0938-.0562,.1797-.021,.2559,.106,.1953,.3247,.416,.4897,.6582,.4966,.2422,.0059,.6348-.1538,1.1768-.48l2.6006-1.5264c.8828-.5317,1.4189-.8696,1.6074-1.0127,.1895-.1436,.291-.2842,.3066-.4214s-.0352-.3452-.1543-.6255c-.0518-.1152-.0371-.1968,.0439-.2451,.0996-.0605,.1885-.0283,.2627,.0952l.6914,1.2314,2.4268,4.0581Z" style="fill: #9a3521;"></path><path id="fullLogo-11" data-name="fullLogo" d="M109.95,40.4189c1.252,.4639,2.002,.6538,2.25,.5698,.127-.0425,.2119-.1182,.2578-.2261,.0459-.1084,.0537-.2998,.0234-.5737-.0176-.126,.0195-.2046,.1113-.2358,.0957-.0327,.1689,.0215,.2158,.1621,.0283,.085,.0684,.23,.1201,.4355,.0723,.2847,.1426,.5225,.208,.7153,.0889,.2661,.2197,.6118,.3916,1.0366,.082,.1987,.1299,.3228,.1465,.3711,.0586,.1772,.0352,.2847-.0713,.3208-.0967,.0327-.1719-.0186-.2256-.1528-.0918-.249-.2539-.478-.4844-.6865-.2324-.208-.5088-.3779-.833-.5103-.3232-.1313-1.1113-.4131-2.3623-.8438-.5801,.6631-1.1768,1.4077-1.7891,2.2334s-.9668,1.4077-1.0654,1.7456c-.0977,.3389-.1221,.6152-.0742,.8301,.04,.1797,.0127,.2856-.0791,.3169-.1035,.0352-.1855-.0361-.2461-.2139l-.626-2.0703c-.0908-.2666-.1885-.5278-.2959-.7842-.0898-.2261-.1465-.3716-.1719-.4365-.0547-.1592-.0898-.2568-.1055-.2925-.0273-.0532-.0449-.0942-.0547-.124-.0352-.1069-.0029-.1787,.1016-.2134,.0918-.0312,.165,.0137,.2188,.1357,.1738,.394,.3857,.5488,.6348,.4653,.2842-.0967,.9121-.8154,1.8789-2.1553-1.5781-.5513-2.4883-.7856-2.7314-.7041-.2617,.0884-.335,.4434-.2197,1.0645,.0254,.1357-.002,.2163-.0781,.2427-.1123,.0376-.1895-.0103-.2344-.1431-.0215-.063-.0703-.2344-.1465-.5142-.0908-.3359-.1934-.6685-.3037-.998-.1045-.311-.1943-.5503-.2666-.7192-.0977-.2148-.1592-.3589-.1855-.4331-.0723-.2144-.0508-.3413,.0645-.3799,.084-.0288,.1533,.0117,.207,.1211,.1592,.3218,.3281,.562,.5098,.7212,.1836,.1592,.498,.3223,.9492,.4893,.4512,.1675,1.3555,.4595,2.7139,.877,1.2129-1.4521,1.9678-2.4336,2.2646-2.9438,.2949-.5112,.4043-.978,.3271-1.4014-.0283-.1553,.0049-.2485,.0967-.2803,.1084-.0361,.1846,.0142,.2305,.1514,.0234,.0698,.0488,.1685,.0781,.2954,.0557,.2446,.2188,.7607,.4844,1.5493,.1104,.3291,.2568,.7231,.4355,1.1816,.1113,.2764,.1738,.4365,.1885,.4814,.0684,.1997,.0498,.3169-.0537,.3521s-.1855-.0254-.2471-.1826c-.0391-.0898-.1104-.2017-.2158-.335-.1055-.1338-.2148-.1812-.3291-.1421-.1045,.0352-.2637,.1758-.4795,.4224-.2168,.2456-.5938,.7153-1.1328,1.4082Z" style="fill: #9a3521;"></path><path id="fullLogo-12" data-name="fullLogo" d="M111.0593,51.2104l-2.2148,.2305c-.4648,.0493-.7607,.1479-.8848,.2944-.123,.147-.1748,.3545-.1543,.6235,.0146,.1792,.0127,.2935-.0078,.3423-.0205,.0498-.0654,.0776-.1348,.0854-.1006,.0107-.1641-.0962-.1875-.3218-.0098-.1011-.0244-.3369-.041-.7085-.0254-.5005-.0488-.8491-.0703-1.0474-.0234-.2178-.0684-.5151-.1367-.8931-.0566-.312-.0928-.54-.1084-.6841-.0127-.124,.0342-.1919,.1445-.2031,.085-.0098,.1533,.0913,.208,.3013,.0547,.2104,.125,.356,.2139,.437,.0908,.0811,.2354,.1309,.4404,.1504,.2041,.0195,.7402-.0156,1.6094-.1035,.8672-.0889,1.6309-.1685,2.29-.2388l1.833-.2012c.249-.0269,.4414-.1084,.5781-.2446s.1875-.356,.1562-.6587c-.0156-.1362,.0332-.21,.1416-.2217,.1279-.0137,.2041,.1001,.2314,.3408l.0098,.1523c.0117,.2183,.0322,.4717,.0625,.7593l.2891,2.373c.1289,1.2046,.0381,2.0635-.2725,2.5776-.3096,.5142-.7861,.8062-1.4307,.8745-.6426,.0688-1.1885-.1313-1.6318-.6006-.4443-.4692-.7285-1.2827-.8525-2.4404-.0273-.2676-.0547-.5928-.0801-.9751Zm.4141-.0444c.0039,.2236,.0127,.3955,.0254,.5161,.0664,.6177,.3008,1.0601,.707,1.3271,.4043,.2671,.8643,.373,1.3799,.3184,.4883-.0522,.8398-.2319,1.0537-.5405,.2148-.3071,.3008-.667,.2568-1.0781-.0225-.2139-.0879-.5098-.1943-.8872l-3.2285,.3442Z" style="fill: #9a3521;"></path><path id="fullLogo-13" data-name="fullLogo" d="M111.4617,63.4497c-.127,.5161-.3271,.9321-.6035,1.2471-.2783,.3154-.7891,.522-1.5312,.6211-.6943,.0962-1.1592,.2241-1.3926,.3857-.2344,.1611-.3789,.4062-.4316,.7344-.0293,.1816-.0957,.2676-.2021,.2568-.1123-.0112-.1533-.1646-.124-.4595l.2793-2.2393c.2578-.21,.6895-.3286,1.2979-.3545,.7773-.0332,1.3311-.0923,1.6572-.1782,.3262-.0854,.5703-.2378,.7285-.4575,.1602-.2197,.2539-.4834,.2852-.79,.0098-.0894,.0156-.2129,.0186-.3691-1.3682-.1357-2.21-.2139-2.5283-.2354s-.5518,.0186-.7021,.1221c-.1494,.1025-.248,.3169-.2949,.6421-.0283,.1733-.0967,.2554-.2021,.2446-.1055-.0103-.1484-.0913-.1348-.2427l.2246-1.7856c.0234-.2412,.0439-.5513,.0615-.9297,.0156-.3481,.0264-.5688,.0371-.6621,.0146-.1592,.0791-.2334,.1924-.2222,.1084,.0107,.1562,.0859,.1426,.2261-.0215,.2178,.0117,.4238,.1035,.6196,.0898,.1953,.541,.333,1.3535,.4136l1.0859,.1011,2.0938,.2129c1.0801,.1069,1.7441,.1245,1.9922,.0527,.249-.0713,.3975-.3149,.4463-.73,.0205-.1631,.085-.2388,.1943-.228,.1113,.0112,.1582,.1255,.1357,.3433-.1074,1.0962-.1768,2.0273-.2041,2.7939-.0098,.3408-.0293,.647-.0566,.9189-.0869,.8823-.332,1.5566-.7334,2.0239-.4014,.4663-.8848,.6714-1.4521,.6157-.3809-.0381-.7119-.1904-.9912-.4575-.2803-.2671-.4756-.5854-.5889-.9556-.1133-.3711-.165-.7969-.1562-1.2788Zm.4023-1.562c-.0156,.1006-.0244,.1768-.0293,.2271-.0332,.3384-.0039,.6855,.0879,1.042,.0938,.3569,.2715,.6196,.5352,.7891s.5527,.2695,.8682,.3008c.4854,.0479,.8779-.0581,1.1797-.3193,.3008-.2607,.4736-.6187,.5186-1.0732,.0176-.1909,.0039-.4097-.041-.6577l-3.1191-.3086Z" style="fill: #9a3521;"></path><path id="fullLogo-14" data-name="fullLogo" d="M111.8503,78.1992c-.6191-.0679-1.2363-.1372-1.8535-.2085-.1074-.0347-.1445-.106-.1094-.2134,.0176-.0591,.0918-.1089,.2188-.1494,.6797-.2051,1.1592-.437,1.4395-.6982,.2803-.2607,.5156-.6909,.709-1.2896,.1074-.335,.1836-.6675,.2295-.998-.6348-.2783-1.3447-.5435-2.1279-.7954-.1328-.043-.3594-.1113-.6777-.2056l-.1416,.4224c-.085,.2637-.1211,.5034-.1113,.7178,.0117,.2153,.1143,.4277,.3076,.6377,.1914,.209,.3184,.3345,.3809,.3745,.1064,.0718,.1484,.1484,.1221,.231-.0342,.1035-.0947,.1411-.1846,.1123-.0264-.0083-.0547-.0215-.085-.0396-.2168-.1187-.8984-.3628-2.0488-.7329-.1592-.0513-.3096-.0835-.4482-.0967-.041-.0034-.0732-.0093-.0986-.0176-.1055-.0342-.1377-.1099-.0986-.229,.0264-.0815,.1445-.1133,.3564-.0942,.3682,.0361,.6865-.0488,.9531-.2554,.2646-.207,.4932-.5947,.6846-1.1626-.6191-.2197-1.0264-.3618-1.2246-.4248-.8477-.2729-1.3555-.4219-1.5234-.4473s-.3281,.0283-.4795,.1597c-.1514,.1323-.29,.3936-.416,.7842-.4541,1.4175-.3047,2.4941,.4521,3.23,.1055,.1035,.1475,.1924,.123,.2661-.0342,.1074-.0967,.147-.1865,.1182-.0576-.019-.1318-.0552-.2178-.1069l-1.4824-.8774,.6543-2.0176c.1855-.5679,.3711-1.0942,.5508-1.5796,.1797-.4858,.3164-.8682,.4062-1.1465,.1006-.3125,.2324-.7896,.3984-1.4297,.0166-.0806,.0312-.1392,.0439-.1768,.0557-.1748,.1416-.2432,.2578-.2061,.1025,.0332,.1328,.1211,.0869,.2617-.1152,.3613-.0957,.6348,.0586,.8223s.5342,.3779,1.1357,.5718l2.8594,.9565c.9814,.3159,1.5869,.4971,1.8193,.5454,.2344,.0483,.4062,.0337,.5205-.0449,.1133-.0786,.2363-.2544,.3682-.5278,.0547-.1143,.125-.1572,.2148-.1279,.1113,.0356,.1445,.1221,.1006,.2598l-.4736,1.3315-1.4629,4.4966Z" style="fill: #9a3521;"></path><path id="fullLogo-15" data-name="fullLogo" d="M107.2781,87.1406c.0195,.0688,.0625,.1509,.1289,.2456,.0801,.1113,.1016,.1992,.0664,.2642-.0527,.0923-.1582,.1064-.3203,.0439l-1.5029-.6016-.1807-.0732c-.0918-.0518-.1123-.123-.0605-.2153,.0371-.0684,.082-.1089,.1309-.1211,.0498-.0127,.1875-.0122,.4131,.0015,.3877,.0229,.7949-.0674,1.2266-.27,.4307-.2026,.7422-.4746,.9307-.8159,.1855-.3315,.2432-.6597,.1758-.9854-.0684-.3262-.2451-.5688-.5332-.729-.2295-.1274-.4932-.1401-.792-.0386-.2979,.1025-.6924,.3994-1.1807,.8921-.7695,.77-1.4355,1.2109-1.998,1.3228-.5605,.1084-1.0742,.0322-1.542-.2275-.4775-.2656-.8135-.6069-1.0068-1.0225-.1934-.416-.291-.8398-.2949-1.2705-.0039-.4312,.1367-.9028,.4209-1.415,.1621-.29,.3711-.5674,.6279-.8315,.2559-.2642,.5596-.5151,.9111-.7534-.04-.1118-.1104-.2266-.21-.3447-.1094-.1328-.1406-.2397-.0957-.3218,.0469-.0854,.168-.0854,.3613,.0005l1.9414,.8853c.0859,.0386,.1396,.064,.1602,.0752,.0977,.0547,.1191,.1338,.0625,.2363-.042,.0752-.168,.0991-.375,.0728-.6279-.0767-1.2129-.0308-1.7539,.1377-.5391,.165-.9395,.4849-1.2031,.9595-.2246,.4028-.2871,.7944-.1855,1.1748s.3047,.6553,.6084,.8242c.3037,.1694,.623,.1968,.958,.084,.3359-.1128,.7656-.4131,1.2852-.9009,.5107-.4722,.9277-.8018,1.2559-.9883,.3262-.1865,.6865-.2812,1.0801-.2842,.3926-.0029,.7422,.0811,1.0488,.252,.5361,.2979,.877,.7588,1.0215,1.3823,.1445,.624,.0195,1.2925-.3789,2.0059-.2139,.3857-.6143,.8354-1.2012,1.3501Z" style="fill: #9a3521;"></path><path id="fullLogo-16" data-name="fullLogo" d="M101.1218,95.6377c.0068,.0708,.0332,.1587,.082,.2646,.0576,.1235,.0615,.2144,.0156,.2715-.0684,.0811-.1748,.0762-.3223-.0156l-1.3672-.8652-.1641-.1055c-.082-.0674-.0889-.1416-.0215-.2227,.0508-.0605,.1006-.0918,.1504-.0957,.0518-.0029,.1875,.0225,.4062,.0771,.376,.0933,.7949,.0791,1.2559-.041,.4609-.1206,.8154-.3315,1.0645-.6328,.2422-.291,.3594-.604,.3525-.9365-.0088-.333-.1377-.604-.3916-.814-.2012-.167-.459-.228-.7715-.1821s-.7539,.2661-1.3242,.6611c-.8965,.6167-1.6309,.9287-2.2051,.936-.5713,.0039-1.0625-.1646-1.4746-.5059-.4219-.3481-.6895-.7446-.8027-1.189-.1152-.4443-.1328-.8784-.0586-1.3027,.0742-.4248,.2998-.8633,.6738-1.3145,.2109-.2559,.4668-.4902,.7666-.7031,.3018-.2129,.6455-.4038,1.0342-.5737-.0195-.1177-.0674-.2437-.1445-.3779-.082-.1499-.0957-.2612-.0342-.3335,.0615-.0752,.1807-.0532,.3545,.0659l1.748,1.2251c.0771,.0537,.125,.0884,.1426,.103,.0879,.0728,.0947,.1538,.0195,.2441-.0547,.0659-.1826,.0669-.3828,.0024-.6035-.1895-1.1875-.2515-1.749-.1846-.5596,.064-1.0137,.3057-1.3584,.7236-.2939,.355-.4258,.729-.3965,1.1216s.1797,.6997,.4473,.9214c.2676,.2212,.5762,.3071,.9277,.2578,.3496-.0498,.8262-.2671,1.4277-.6509,.5869-.3716,1.0566-.6196,1.4141-.7432,.3555-.124,.7266-.1509,1.1133-.0825,.3867,.0693,.7148,.2153,.9863,.4399,.4727,.3906,.7227,.9058,.752,1.5454,.0273,.6396-.2178,1.2744-.7383,1.9033-.2822,.3398-.7578,.709-1.4277,1.1084Z" style="fill: #9a3521;"></path><path id="fullLogo-17" data-name="fullLogo" d="M87.3738,102.9893c-.2646-.3779-.3555-.7949-.2744-1.2524,.0801-.4565,.3096-.8174,.6885-1.0815,.3799-.2666,.7969-.3589,1.2539-.2769,.4551,.0815,.8145,.3115,1.0781,.6895,.2656,.3774,.3564,.7944,.2754,1.2515-.0801,.457-.3086,.8179-.6875,1.082-.377,.2642-.7949,.356-1.252,.2754-.4561-.0806-.8164-.3101-1.082-.6875Z" style="fill: #9a3521;"></path><path id="fullLogo-18" data-name="fullLogo" d="M73.2175,105.2471l.4102-.1191,2.3223,2.7383c.9248,1.0859,1.625,1.8799,2.0996,2.3813,.4727,.5015,.8047,.7949,.9922,.8809,.1875,.0864,.3799,.127,.5781,.1226,.125-.0034,.1992,.0361,.2227,.1187,.0176,.0601,.0068,.1064-.0293,.1396-.0371,.0332-.1494,.0771-.3379,.1313l-1.4258,.3818c-.1729,.0498-.4023,.124-.6855,.2231-.4102,.1431-.7285,.2471-.9531,.312-.1348,.0391-.2188,.0044-.25-.105-.0293-.1011,.0352-.1807,.1934-.2388,.1582-.0615,.2852-.1602,.3838-.2969,.0986-.1362,.126-.2778,.085-.4238-.0352-.1167-.1113-.2544-.2324-.4146-.123-.1602-.6055-.7358-1.4512-1.728l-1.5586-1.7993-.2637,3.627c.127,.1421,.333,.395,.623,.7583,.2891,.3638,.4961,.5703,.6191,.6201,.123,.0493,.3047,.0581,.541,.0259,.1289-.0166,.207,.02,.2334,.1099,.0166,.0601,.0049,.106-.0361,.1387-.042,.0322-.2051,.0894-.4902,.1719l-1.3535,.3613-1.0898,.3457c-.3828,.1104-.5996,.1675-.6514,.1699-.0518,.0034-.0898-.0352-.1123-.1133-.0293-.1016,.0254-.1724,.1641-.2129,.2441-.0698,.4062-.1821,.4883-.3359s.0986-.3115,.0518-.4727c-.1318-.458-1.0752-1.7485-2.8311-3.8716-.0625,.5957-.1289,1.4199-.1973,2.4727s-.1016,1.6597-.0996,1.8223c.002,.1616,.0225,.3105,.0605,.4458,.0605,.21,.1719,.3447,.3311,.4043,.1602,.0596,.3057,.0732,.4326,.0396,.1914-.043,.2988-.0176,.3262,.0762,.0293,.1011-.0391,.1768-.209,.2251l-.959,.2471c-.3711,.1079-.6895,.2134-.957,.3179-.1504,.0566-.252,.0933-.3047,.1084-.1465,.0425-.2344,.0107-.2656-.0942-.0264-.0938,.0352-.1704,.1855-.23,.1484-.0596,.2715-.1421,.3672-.2476s.1904-.3032,.2822-.5938c.0928-.291,.1758-.8843,.25-1.7798l.2178-2.8076,.209-2.8545,.3984-.1147c.1387,.1509,.6914,.8809,1.6641,2.1895,.5059,.6743,1.0586,1.3789,1.6582,2.1143l.1924-2.8135,.1611-2.5537Z" style="fill: #9a3521;"></path><path id="fullLogo-19" data-name="fullLogo" d="M56.3738,115.562c-.1396-.6064-.2764-1.2124-.4121-1.8188-.0029-.1133,.0527-.1714,.165-.1743,.0625-.0015,.1338,.0518,.2139,.1587,.416,.5742,.793,.9507,1.1318,1.1294,.3389,.1792,.8223,.2612,1.4502,.2461,.3535-.0078,.6914-.0454,1.0186-.1113,.0547-.6914,.0723-1.4487,.0518-2.271-.002-.1401-.0117-.376-.0273-.707l-.4463,.0044c-.2773,.0063-.5156,.0503-.7158,.1313-.1982,.0811-.3652,.2466-.5,.498s-.21,.4121-.2285,.4834c-.0322,.125-.0908,.1895-.1768,.1914-.1104,.0024-.165-.043-.168-.1367-.001-.0273,.0029-.0586,.0088-.0942,.042-.2427,.0488-.9678,.0195-2.1748-.0029-.1675-.0215-.3198-.0566-.4556-.0088-.0391-.0137-.0723-.0137-.0996-.0039-.1094,.0576-.165,.1836-.1685,.0859-.0015,.1543,.1001,.2061,.3062,.0869,.3613,.2705,.6333,.5537,.8164,.2832,.1826,.7246,.271,1.3232,.2646,.0049-.6567,.0039-1.0884-.001-1.2954-.0205-.8901-.0459-1.4189-.0781-1.5864-.0312-.1675-.1348-.3003-.3086-.4004-.1738-.0991-.4668-.144-.877-.1343-1.4883,.0352-2.4551,.5308-2.9023,1.4868-.0635,.1338-.1348,.2021-.2109,.2041-.1133,.0024-.1699-.043-.1738-.1367,0-.0625,.0098-.1431,.0312-.2407l.3398-1.6904,2.1211-.0435c.5977-.0107,1.1553-.0098,1.6738,.001,.5186,.0117,.9229,.0137,1.2168,.0068,.3281-.0078,.8203-.0391,1.4805-.0938,.0811-.0093,.1416-.0151,.1807-.0156,.1836-.0044,.2773,.0542,.2793,.1748,.0029,.1094-.0693,.166-.2188,.1694-.3789,.0088-.6309,.1177-.7568,.3252-.126,.208-.1816,.6279-.167,1.2603l.0361,3.0146c.0244,1.0303,.0518,1.6631,.082,1.8984,.0312,.2358,.1035,.394,.2148,.4756,.1094,.0811,.3184,.1396,.6191,.1758,.125,.0127,.1885,.0659,.1914,.1597,.002,.1172-.0684,.1772-.2129,.1807l-1.4141-.0093-4.7266,.0952Z" style="fill: #9a3521;"></path><path id="fullLogo-20" data-name="fullLogo" d="M46.4246,114.1841c-.0576,.0405-.1211,.1079-.1895,.2017-.0791,.1118-.1543,.1611-.2275,.1484-.1045-.0176-.1533-.1138-.1475-.2871l.0723-1.6167,.0117-.1943c.0176-.104,.0781-.147,.1826-.1294,.0771,.0137,.1299,.0415,.1572,.0845,.0283,.0425,.0732,.1724,.1348,.3901,.1055,.3726,.3262,.7285,.6592,1.0693,.333,.3398,.6924,.5439,1.0771,.6108,.373,.0649,.7021,.0112,.9883-.1592,.2861-.1714,.4551-.4189,.5117-.7432,.0459-.2583-.0293-.5117-.2236-.7603-.1953-.249-.6055-.5229-1.2314-.8223-.9805-.4717-1.6152-.9551-1.9062-1.4497-.2871-.4937-.3848-1.0044-.2939-1.5317,.0938-.5381,.3047-.9673,.6338-1.2871,.3301-.3188,.6973-.5518,1.1035-.6968,.4062-.1455,.8965-.1685,1.4746-.0679,.3271,.0566,.6562,.1626,.9912,.3184,.333,.1543,.6709,.3589,1.0117,.6123,.0928-.0752,.1777-.1792,.2559-.312,.0889-.147,.1807-.2129,.2725-.1968,.0957,.0166,.1348,.1309,.1182,.3418l-.1963,2.1245c-.0078,.0942-.0146,.1523-.0186,.1753-.0195,.1113-.0869,.1572-.2021,.1372-.084-.0146-.1484-.1245-.1914-.3306-.1348-.6182-.3711-1.1543-.707-1.6099-.334-.4541-.7676-.728-1.3027-.8208-.4551-.0791-.8447-.0078-1.1709,.2129s-.5186,.5029-.5771,.8452c-.0605,.3428,.0186,.6538,.2344,.9331,.2178,.2793,.6426,.5854,1.2744,.9175,.6152,.3247,1.0635,.6104,1.3467,.8579,.2852,.248,.4922,.5566,.623,.9263,.1338,.3701,.1699,.728,.1094,1.0747-.1045,.604-.4277,1.0771-.9688,1.4194-.542,.3418-1.2148,.4429-2.0195,.3032-.4336-.0752-.9912-.3052-1.6699-.689Z" style="fill: #9a3521;"></path><path id="fullLogo-21" data-name="fullLogo" d="M36.4265,107.6733l-.6992,1.6357c-.1816,.4648-.2637,.8135-.2471,1.0464,.0176,.2334,.1768,.4146,.4736,.5439,.2432,.1079,.3438,.2144,.3027,.3203-.0449,.1128-.1387,.1406-.2852,.0835-.167-.0654-.418-.1738-.7529-.3242-.4316-.1919-.6729-.2979-.7236-.3179-.6172-.2422-1.1641-.4404-1.6387-.5928-.0908-.0273-.1543-.0479-.1904-.062-.1387-.0542-.1865-.1323-.1475-.2344,.0439-.1123,.1465-.1401,.3027-.082,.2559,.0962,.4512,.1323,.584,.1089s.2471-.0952,.3418-.2153c.0957-.1201,.3184-.5874,.666-1.4014,.3506-.8145,.584-1.3765,.7061-1.6855,.5029-1.2812,.8018-2.0688,.8984-2.3623,.0967-.2944,.1094-.52,.0381-.6782-.0693-.1577-.2422-.29-.5176-.3989-.1719-.0669-.2373-.1553-.1934-.2642,.0371-.0947,.1211-.1162,.252-.0649,.043,.0171,.1357,.0596,.2764,.1274l1.4873,.6465c.0898,.0356,.2686,.0967,.5312,.1831,.5068,.1611,.832,.27,.9785,.3267,.1309,.0518,.1758,.1299,.1328,.2354-.0371,.0947-.1084,.1206-.2178,.0781-.2607-.1021-.4678-.1313-.624-.0874-.1543,.0444-.3232,.2192-.5059,.5254s-.4648,.9478-.8496,1.9263c-.04,.1016-.0957,.2559-.168,.4624,.6289,.2681,1.1895,.498,1.6787,.6904,.5645,.2212,1.0166,.3774,1.3584,.4697,.3271-.7153,.6064-1.3691,.8398-1.9619,.1641-.4219,.2334-.7329,.2041-.9326-.0283-.2002-.1865-.3647-.4756-.4951-.1396-.063-.1895-.1436-.1504-.2417,.0391-.1021,.1338-.1235,.2832-.0649,.0547,.0215,.1328,.0581,.2344,.1104,.418,.2104,.8633,.4082,1.3359,.5938,.2227,.0874,.5234,.1938,.9023,.3198,.2695,.0864,.4424,.1445,.5186,.1748,.1895,.0742,.2627,.1655,.2197,.2744-.0352,.0874-.1299,.1113-.2852,.0708-.291-.0806-.5059-.0952-.6406-.0439-.1357,.0518-.2783,.1943-.4258,.4277-.1484,.2329-.46,.9419-.9355,2.1265-.4746,1.1846-.7344,1.8315-.7764,1.9404-.2119,.5376-.3447,.9351-.4014,1.1914-.0566,.2568-.0557,.4448,.002,.564,.0586,.1196,.1777,.2271,.3574,.3228,.1377,.0791,.2207,.1357,.249,.1694,.0283,.0347,.0303,.0845,.0049,.1499-.043,.1094-.127,.1396-.25,.0908-.1562-.0615-.416-.1797-.7754-.3545-.2031-.0962-.4336-.1953-.6973-.2983l-1.5615-.5493c-.1787-.0703-.2451-.1621-.2012-.2744,.0439-.1094,.1377-.1348,.2822-.0781,.2402,.0942,.418,.1299,.5312,.1074,.1133-.0229,.2266-.1113,.3359-.2656,.1113-.1538,.2637-.4766,.4561-.9688l.5977-1.5562c-.4424-.228-.9316-.4478-1.4658-.6567-.5312-.2085-1.0527-.3853-1.5605-.5308Z" style="fill: #9a3521;"></path><path id="fullLogo-22" data-name="fullLogo" d="M28.2527,107.5044c-.1152-.0728-.3467-.2329-.6943-.479-.2646-.1885-.4785-.334-.6396-.436l-1.5439-.9238c-.1279-.0815-.165-.1675-.1084-.2563,.0508-.0791,.1377-.0889,.2617-.0288,.2764,.1392,.4824,.2007,.6152,.1855,.1309-.0156,.3027-.1367,.5127-.3633,.2119-.2271,.6045-.7935,1.1787-1.6997,.6611-1.042,1.1553-1.8574,1.4844-2.4463,.3262-.5898,.4824-.9834,.4668-1.1807-.0166-.1973-.1416-.3701-.376-.5186-.1621-.1025-.2148-.1968-.1611-.2827,.0742-.1152,.1973-.1177,.3721-.0068,.0498,.0317,.1211,.0791,.2158,.1431,.5918,.4365,1.0029,.7266,1.2295,.8711,.499,.3154,.876,.5342,1.1328,.6553,.1328,.0664,.2266,.1162,.2793,.1494,.1221,.0776,.1533,.1641,.0928,.2593-.0488,.0762-.1289,.0884-.2383,.0366-.3047-.1416-.543-.1826-.7158-.124-.1738,.0586-.417,.3105-.7266,.7568-.3105,.4458-.7725,1.1523-1.3857,2.1187-.6465,1.0195-1.0605,1.7129-1.2432,2.0806s-.2568,.6182-.2227,.7505,.1631,.2837,.3877,.4546c.1211,.0894,.1504,.1802,.0908,.2725-.0537,.0854-.1426,.0898-.2646,.0122Z" style="fill: #9a3521;"></path><path id="fullLogo-23" data-name="fullLogo" d="M22.2537,98.0161l1.5068-1.6392c.3164-.3462,.4727-.6152,.4688-.8066-.0059-.1924-.1045-.3818-.2988-.5698-.1289-.124-.2031-.2114-.2207-.2612-.0166-.0508-.002-.1021,.0459-.1538,.0693-.0747,.1865-.0361,.3535,.1172,.0752,.0684,.2412,.2368,.499,.5039,.3506,.3579,.5996,.604,.7461,.7383,.1621,.1475,.3936,.3408,.6943,.5791,.249,.1958,.4268,.3433,.5342,.4404,.0918,.0845,.1016,.167,.0273,.2476-.0586,.0635-.1768,.0342-.3574-.0879-.1797-.1216-.3291-.1836-.4492-.1851s-.2637,.0576-.4297,.1782c-.166,.1211-.5439,.502-1.1367,1.1426-.5918,.6416-1.1113,1.207-1.5586,1.6963l-1.2402,1.3647c-.168,.1841-.2598,.3726-.2715,.5654s.0947,.3916,.3193,.5972c.1006,.0928,.1143,.1792,.041,.2598-.0869,.0952-.2197,.061-.3984-.1025l-.1084-.1069c-.1533-.1567-.3379-.332-.5508-.5273l-1.7881-1.5874c-.8936-.8174-1.3936-1.5215-1.5029-2.1123-.1074-.5898,.0566-1.1245,.4941-1.6025,.4365-.4775,.9766-.688,1.6211-.6304,.6426,.0571,1.3945,.479,2.2539,1.2642,.1992,.1821,.4346,.4082,.7061,.6782Zm-.2812,.3071c-.1514-.165-.2705-.2881-.3604-.3701-.459-.4189-.9277-.5947-1.4082-.5264-.4805,.0674-.8955,.293-1.2461,.6758-.3311,.3623-.4746,.73-.4316,1.1025s.2168,.6982,.5234,.9775c.1572,.145,.4023,.3232,.7324,.5356l2.1904-2.395Z" style="fill: #9a3521;"></path><path id="fullLogo-24" data-name="fullLogo" d="M6.1589,83.7363c.4688-.4082,.9395-.8154,1.4102-1.2207,.0977-.0562,.1748-.0352,.2305,.063,.0312,.0547,.0176,.1421-.0391,.2632-.3105,.6377-.4639,1.1484-.4619,1.5312s.1572,.8481,.4678,1.3955c.1719,.3066,.3652,.5879,.5781,.8447,.6348-.2783,1.3105-.6201,2.0273-1.0254,.1221-.0684,.3242-.188,.6094-.3584l-.2139-.3901c-.1367-.2417-.2871-.4307-.4531-.5688-.165-.1372-.3896-.2065-.6748-.207-.2852,0-.4639,.0088-.5342,.0264-.126,.0308-.21,.0093-.2529-.0659-.0527-.0952-.041-.166,.041-.2124,.0234-.0132,.0537-.0249,.0879-.0356,.2344-.0786,.877-.4146,1.9277-1.0088,.1465-.0825,.2695-.1709,.375-.2646,.0293-.0269,.0566-.0469,.0801-.0605,.0938-.0537,.1729-.0264,.2363,.0825,.041,.0752-.0176,.1836-.1738,.3262-.2773,.2471-.4297,.5386-.458,.874-.0283,.335,.1025,.7656,.3896,1.2915,.5811-.3062,.9619-.5103,1.1416-.6118,.7764-.4385,1.2295-.7109,1.3623-.8174s.2021-.2603,.207-.4604c.0059-.2007-.0918-.48-.293-.8369-.7344-1.2959-1.627-1.9155-2.6816-1.8584-.1484,.0083-.2412-.022-.2793-.0894-.0547-.0986-.043-.1704,.0391-.2168,.0547-.0308,.1299-.0596,.2266-.0879l1.6523-.4961,1.0371,1.8491c.291,.5225,.5547,1.0142,.7891,1.4766,.2344,.4619,.4238,.8203,.5674,1.0752,.1621,.2861,.4219,.7065,.7812,1.2617,.0469,.0674,.0811,.1187,.0986,.1528,.0898,.1597,.084,.269-.0215,.3286-.0957,.0542-.1797,.0161-.2529-.1128-.1855-.3301-.4014-.5015-.6445-.5146-.2422-.0127-.6377,.1362-1.1895,.4473l-2.6416,1.4541c-.8965,.5068-1.4414,.8296-1.6348,.9683-.1934,.1382-.2988,.2754-.3184,.4121-.0186,.1367,.0273,.3462,.1377,.6294,.0479,.1167,.0303,.1978-.0508,.2441-.1025,.0571-.1885,.0234-.2598-.1025l-.6582-1.25-2.3135-4.124Z" style="fill: #9a3521;"></path><path id="fullLogo-25" data-name="fullLogo" d="M5.157,73.6982c-1.2373-.499-1.9814-.71-2.2324-.6328-.127,.0391-.2148,.1123-.2637,.2192s-.0625,.2979-.0391,.5728c.0146,.1265-.0254,.2036-.1191,.2324-.0967,.0298-.166-.0259-.2109-.168-.0254-.0859-.0605-.2319-.1074-.439-.0645-.2861-.127-.5269-.1875-.7207-.082-.269-.2031-.6177-.3633-1.0474-.0742-.2012-.1201-.3262-.1348-.375-.0547-.1787-.0283-.2852,.0791-.3188,.0967-.0298,.1709,.0234,.2217,.1592,.085,.2515,.2402,.4849,.4668,.6997,.2246,.2148,.498,.3926,.8164,.5332,.3203,.1411,1.0996,.4443,2.3389,.9097,.5986-.6465,1.2139-1.374,1.8496-2.1821s1.0068-1.3799,1.1143-1.7158c.1074-.3354,.1396-.6113,.0986-.8271-.0361-.1812-.0068-.2861,.0869-.3149,.1035-.0317,.1846,.0415,.2393,.2207l.5674,2.0874c.084,.2686,.1758,.5332,.2754,.7925,.082,.228,.1367,.375,.1602,.4409,.0488,.1606,.082,.2593,.0977,.2954,.0234,.0537,.041,.0952,.0498,.1255,.0322,.1079-.0029,.1782-.1064,.2104-.0938,.0288-.166-.019-.2158-.1421-.1631-.3984-.3701-.5596-.6201-.4824-.2891,.0884-.9346,.7891-1.9395,2.1016,1.5625,.5952,2.4668,.8555,2.7109,.7803,.2627-.0811,.3457-.4336,.248-1.0576-.0205-.1362,.0078-.2168,.0869-.2407,.1123-.0347,.1885,.0156,.2295,.1499,.0195,.0635,.0625,.2358,.1328,.5171,.0801,.3389,.1719,.6743,.2744,1.0063,.0967,.3145,.1787,.5562,.2471,.7271,.0918,.2173,.1484,.3633,.1719,.438,.0664,.2163,.042,.3423-.0742,.3779-.0859,.0264-.1533-.0161-.2031-.127-.1504-.3262-.3135-.5713-.4902-.7354-.1777-.1641-.4902-.3359-.9346-.5156-.4463-.1797-1.3428-.4971-2.6885-.9521-1.2529,1.418-2.0352,2.3774-2.3457,2.8794-.3105,.5024-.4316,.9658-.3662,1.3911,.0234,.1562-.0117,.249-.1045,.2778-.1094,.0327-.1836-.019-.2266-.1577-.0215-.0708-.0449-.1699-.0684-.2969-.0508-.2466-.1973-.7676-.4424-1.563-.1016-.332-.2373-.73-.4033-1.1934-.1025-.2793-.1602-.4419-.1738-.4858-.0625-.2021-.041-.3188,.0635-.3511s.1846,.0308,.2422,.1895c.0361,.0903,.1045,.2046,.2061,.3413,.1016,.1362,.209,.1865,.3262,.1509,.1035-.0322,.2676-.1685,.4902-.4087,.2227-.2397,.6133-.6987,1.1699-1.376Z" style="fill: #9a3521;"></path><path id="fullLogo-26" data-name="fullLogo" d="M4.3503,62.8721l2.2207-.1675c.4668-.0366,.7646-.1265,.8926-.27,.1289-.1426,.1855-.3486,.1719-.6182-.0098-.1797-.0039-.2939,.0176-.3423,.0225-.0488,.0684-.0762,.1377-.0815,.1016-.0078,.1611,.1011,.1787,.3271,.0078,.1011,.0146,.3374,.0195,.7095,.0117,.5005,.0254,.8501,.041,1.0488,.0176,.2183,.0547,.5171,.1113,.8965,.0479,.3135,.0781,.5425,.0889,.686,.0107,.125-.04,.1914-.1494,.1997-.085,.0073-.1523-.0952-.1992-.3071-.0479-.2119-.1152-.3594-.2031-.4429-.0859-.083-.2305-.1372-.4346-.1626s-.7402-.0059-1.6104,.0581-1.6357,.1221-2.2979,.1738l-1.8389,.1494c-.248,.0195-.4424,.0952-.583,.2275-.1396,.1328-.1992,.3506-.1748,.6548,.0098,.1357-.0391,.208-.1475,.2173-.1289,.0098-.2021-.106-.2217-.3472l-.0059-.1523c-.0059-.2192-.0195-.4731-.042-.7612l-.2217-2.3804c-.0938-1.2075,.0215-2.0635,.3457-2.5693,.3242-.5054,.8086-.7832,1.4551-.8335s1.1836,.1655,1.6152,.647c.4297,.4814,.6914,1.3027,.7812,2.4629,.0215,.269,.0391,.5947,.0527,.9775Zm-.415,.0322c.0029-.2231-.001-.3955-.0098-.5161-.0498-.6191-.2715-1.0679-.6689-1.3462-.3965-.2788-.8535-.3979-1.3711-.3574-.4902,.0381-.8457,.208-1.0703,.5098-.2217,.3013-.3174,.6587-.2852,1.0713,.0166,.2144,.0723,.5112,.1699,.8916l3.2354-.2529Z" style="fill: #9a3521;"></path><path id="fullLogo-27" data-name="fullLogo" d="M4.2918,50.644c.1387-.5122,.3516-.9224,.6377-1.2295,.2861-.3076,.8018-.5005,1.5459-.5786,.6973-.0767,1.1641-.1924,1.4043-.3472,.2393-.1548,.3887-.396,.4492-.7227,.0352-.1807,.1045-.2642,.209-.251,.1133,.0142,.1504,.1689,.1133,.4629l-.3418,2.231c-.2627,.2026-.6982,.3086-1.3066,.3184-.7793,.0117-1.332,.0557-1.6621,.1318-.3281,.0767-.5762,.2222-.7412,.4375s-.2676,.4761-.3057,.7822c-.0117,.0894-.0215,.2119-.0293,.3682,1.3633,.1733,2.2051,.2749,2.5215,.3057,.3174,.0303,.5527-.0044,.7051-.103,.1514-.0986,.2559-.3101,.3125-.6333,.0352-.1729,.1035-.2529,.209-.2393,.1035,.0127,.1465,.0952,.127,.2461l-.2734,1.7783c-.0303,.2407-.0586,.5503-.0879,.9282-.0234,.3472-.042,.5679-.0537,.6606-.0205,.1587-.0869,.231-.1982,.2168-.1094-.0137-.1543-.0903-.1367-.2295,.0273-.2173-.002-.4248-.0869-.6226s-.5322-.3481-1.3428-.4507l-1.0811-.1318-2.0869-.27c-1.0771-.1367-1.7402-.1724-1.9902-.1079-.252,.0645-.4062,.3042-.4668,.7178-.0234,.1621-.0908,.2363-.1992,.2227-.1133-.0142-.1553-.1299-.127-.3472,.1377-1.0923,.2324-2.0215,.2812-2.7876,.0195-.3398,.0469-.6455,.082-.917,.1113-.8789,.373-1.5469,.7881-2.0024,.4131-.4556,.9033-.647,1.4697-.5757,.3799,.0483,.7061,.21,.9785,.4849,.2715,.2744,.459,.5981,.5625,.9717,.1016,.373,.1416,.8003,.1211,1.2822Zm-.4463,1.5503c.0166-.1006,.0293-.1758,.0342-.2261,.0439-.3369,.0234-.6851-.0586-1.0444-.082-.3584-.2539-.6265-.5117-.8027-.2598-.1768-.5469-.2852-.8604-.3247-.4834-.0615-.8799,.0337-1.1885,.2861-.3066,.2529-.4893,.6055-.5469,1.0586-.0254,.1899-.0176,.4097,.0215,.6587l3.1104,.3945Z" style="fill: #9a3521;"></path><path id="fullLogo-28" data-name="fullLogo" d="M4.3074,35.895c.6172,.0845,1.2324,.1714,1.8477,.2598,.1074,.0376,.1406,.1094,.1035,.2158-.0215,.0586-.0957,.1064-.2236,.1436-.6855,.1855-1.1709,.4048-1.458,.6582-.2871,.2529-.5352,.6763-.7441,1.2695-.1172,.3315-.2021,.6621-.2568,.9907,.6279,.2964,1.3291,.5806,2.1045,.854,.1338,.0469,.3574,.1216,.6719,.2246l.1533-.4185c.0928-.2617,.1357-.5,.1318-.7148-.0059-.2148-.1016-.4302-.2891-.6455-.1875-.2148-.3105-.3433-.3711-.3848-.1055-.0752-.1445-.1528-.1162-.2339,.0371-.103,.0986-.1392,.1875-.1079,.0264,.0093,.0537,.0234,.085,.042,.2129,.1245,.8887,.3877,2.0264,.7891,.1592,.0557,.3076,.0923,.4463,.1089,.0391,.0049,.0723,.0117,.0977,.0205,.1035,.0366,.1348,.1138,.0938,.2314-.0293,.0811-.1484,.1099-.3594,.085-.3691-.0469-.6895,.0293-.9609,.229-.2695,.1992-.5098,.5806-.7168,1.1431,.6133,.2368,1.0176,.3896,1.2129,.458,.8398,.2964,1.3438,.4595,1.5107,.4897,.168,.0298,.3291-.0195,.4834-.147,.1543-.1279,.3008-.3853,.4375-.7725,.4941-1.4043,.374-2.4844-.3623-3.2407-.1025-.1064-.1416-.1968-.1152-.27,.0371-.106,.1006-.144,.1885-.1128,.0596,.021,.1299,.0586,.2148,.1128l1.459,.9185-.71,1.9985c-.2021,.5625-.4014,1.084-.5947,1.564-.1934,.4805-.3398,.8589-.4375,1.1353-.1094,.3091-.2549,.7822-.4375,1.4175-.0195,.0801-.0361,.1387-.0488,.1753-.0605,.1733-.1494,.2393-.2627,.1997-.1025-.0366-.1299-.125-.0811-.2646,.126-.3574,.1143-.6318-.0361-.8237-.1494-.1909-.5225-.3921-1.1191-.6025l-2.832-1.0347c-.9717-.3428-1.5732-.541-1.8037-.5957-.2314-.0547-.4053-.0444-.5195,.0308-.1162,.0757-.2441,.2476-.3848,.5171-.0566,.1128-.1289,.1533-.2168,.1221-.1113-.0386-.1426-.126-.0938-.2627l.5098-1.3174,1.5859-4.4546Z" style="fill: #9a3521;"></path><path id="fullLogo-29" data-name="fullLogo" d="M9.1248,27.0815c-.0166-.0688-.0566-.1519-.1201-.2485-.0762-.1138-.0957-.2021-.0586-.2661,.0547-.0908,.1621-.1021,.3213-.0347l1.4854,.6426,.1777,.0791c.0918,.0537,.1094,.126,.0557,.2168-.04,.0669-.085,.1064-.1338,.1172-.0508,.0117-.1885,.0068-.4131-.0127-.3857-.0342-.7969,.0449-1.2334,.2354-.4375,.1904-.7559,.4536-.9551,.7896-.1934,.3262-.2607,.6523-.2021,.9805,.0576,.3271,.2295,.5752,.5127,.7432,.2246,.1338,.4893,.1538,.791,.0605,.3008-.0938,.7031-.3799,1.2051-.8584,.79-.7485,1.4678-1.1709,2.0332-1.2666,.5625-.0933,1.0742-.0024,1.5352,.27,.4707,.2793,.7969,.6294,.9785,1.0508,.1807,.4209,.2676,.8472,.2598,1.2778-.0098,.4312-.1621,.8989-.4619,1.4028-.1689,.2852-.3857,.5566-.6494,.8135s-.5742,.4995-.9326,.7275c.0371,.1133,.1045,.23,.2002,.3506,.1064,.1357,.1348,.2437,.0879,.3242-.0508,.084-.1719,.0806-.3613-.0098l-1.917-.9395c-.084-.041-.1377-.0679-.1562-.0796-.0977-.0581-.1172-.1372-.0576-.2383,.0449-.0737,.1699-.0942,.3789-.062,.625,.0942,1.2109,.0645,1.7549-.0889,.5439-.1499,.9541-.4585,1.2314-.9258,.2354-.396,.3066-.7861,.2158-1.1689-.0898-.3828-.2852-.6631-.583-.8408-.2998-.1772-.6182-.2144-.957-.1113-.3389,.104-.7754,.3921-1.3105,.8652-.5205,.458-.9482,.7754-1.2803,.9531-.333,.1777-.6953,.2622-1.0879,.2544-.3926-.0083-.7402-.1021-1.042-.2817-.5283-.3125-.8555-.7832-.9824-1.4106-.127-.627,.0176-1.292,.4336-1.9941,.2246-.3799,.6377-.8184,1.2373-1.3164Z" style="fill: #9a3521;"></path><path id="fullLogo-30" data-name="fullLogo" d="M15.5125,18.7622c-.0039-.0713-.0283-.1606-.0742-.2671-.0537-.1255-.0566-.2163-.0078-.272,.0703-.0796,.1768-.0713,.3213,.0244l1.3428,.9028,.1621,.1099c.0791,.0693,.084,.144,.0137,.2231-.0508,.0586-.1016,.0894-.1533,.0913-.0508,.002-.1855-.0278-.4033-.0884-.373-.103-.791-.1011-1.2559,.0068-.4629,.1079-.8242,.3086-1.082,.6021-.249,.2856-.375,.5942-.3779,.9272-.0029,.3325,.1211,.6074,.3682,.8237,.1973,.1733,.4531,.2412,.7676,.2041,.3125-.0371,.7598-.2451,1.3418-.6245,.9121-.5918,1.6553-.8833,2.2305-.874,.5703,.0117,1.0566,.1934,1.46,.5459,.4111,.3604,.668,.7637,.7686,1.2109,.1025,.4473,.1094,.8818,.0234,1.3042-.0879,.4224-.3242,.854-.709,1.2949-.2188,.2495-.4824,.4771-.7871,.6812-.3066,.2046-.6572,.3867-1.0498,.5454,.0156,.1182,.0596,.2451,.1328,.3813,.0791,.1528,.0879,.2642,.0273,.335-.0645,.0732-.1826,.0479-.3545-.0762l-1.7119-1.2725c-.0771-.0566-.1221-.0918-.1396-.1074-.0859-.0747-.0898-.1562-.0137-.2441,.0566-.0645,.1846-.062,.3828,.0078,.5977,.2065,1.1797,.2842,1.7432,.2324,.5615-.0483,1.0205-.2769,1.3779-.6855,.3047-.3467,.4473-.7168,.4268-1.1099-.0186-.3931-.1592-.7046-.4209-.9331-.2617-.229-.5684-.3237-.9199-.2832-.3516,.0396-.834,.2437-1.4463,.6108-.5967,.3555-1.0742,.5898-1.4326,.7036-.3594,.1143-.7314,.1309-1.1162,.0518-.3838-.0801-.71-.2354-.9736-.4668-.4609-.4038-.6982-.9263-.708-1.5659-.0117-.6406,.251-1.2681,.79-1.8823,.291-.3315,.7764-.688,1.457-1.0679Z" style="fill: #9a3521;"></path><path id="fullLogo-31" data-name="fullLogo" d="M29.4636,11.7876c.2539,.3853,.334,.8047,.2402,1.2593-.0928,.4546-.332,.8086-.7178,1.062-.3867,.2563-.8076,.3369-1.2607,.2427-.4531-.0947-.8066-.334-1.0596-.7188-.2549-.3848-.334-.8047-.2412-1.2593,.0938-.4546,.332-.8086,.7168-1.0625,.3848-.2534,.8047-.334,1.2598-.2402,.4551,.0928,.8086,.332,1.0625,.7168Z" style="fill: #9a3521;"></path></svg> 